<svg width="32" height="32" viewBox="0 0 32 32" fill="none" xmlns="http://www.w3.org/2000/svg">
<circle cx="16" cy="16" r="4" stroke="#8A8A8E" stroke-width="1.2"/>
<path d="M18.3545 2.86974C17.8644 2.66675 17.2431 2.66675 16.0006 2.66675C14.7581 2.66675 14.1369 2.66675 13.6468 2.86974C12.9934 3.14039 12.4743 3.65952 12.2036 4.31293C12.0801 4.6112 12.0317 4.95808 12.0128 5.46407C11.985 6.20766 11.6037 6.89594 10.9592 7.26799C10.3148 7.64003 9.5281 7.62613 8.87024 7.27843C8.42258 7.04181 8.09799 6.91024 7.7779 6.8681C7.0767 6.77579 6.36756 6.9658 5.80646 7.39635C5.38564 7.71925 5.07502 8.25728 4.45376 9.33332C3.83251 10.4094 3.52188 10.9474 3.45264 11.4733C3.36033 12.1745 3.55034 12.8836 3.98089 13.4447C4.1774 13.7008 4.45359 13.9161 4.88223 14.1854C5.51238 14.5814 5.91784 15.2559 5.9178 16.0001C5.91776 16.7442 5.51232 17.4186 4.88223 17.8145C4.45351 18.0839 4.17729 18.2992 3.98076 18.5554C3.55021 19.1164 3.3602 19.8256 3.45251 20.5268C3.52175 21.0527 3.83237 21.5907 4.45363 22.6667C5.07489 23.7428 5.38551 24.2808 5.80633 24.6037C6.36743 25.0343 7.07657 25.2243 7.77777 25.132C8.09784 25.0898 8.42241 24.9583 8.87004 24.7217C9.52794 24.374 10.3147 24.3601 10.9592 24.7321C11.6036 25.1042 11.985 25.7925 12.0128 26.5362C12.0317 27.0421 12.0801 27.389 12.2036 27.6872C12.4743 28.3406 12.9934 28.8598 13.6468 29.1304C14.1369 29.3334 14.7581 29.3334 16.0006 29.3334C17.2431 29.3334 17.8644 29.3334 18.3545 29.1304C19.0079 28.8598 19.527 28.3406 19.7976 27.6872C19.9212 27.389 19.9696 27.0421 19.9885 26.536C20.0163 25.7925 20.3976 25.1042 21.042 24.7321C21.6864 24.36 22.4732 24.3739 23.1311 24.7216C23.5788 24.9582 23.9033 25.0897 24.2234 25.1319C24.9246 25.2242 25.6337 25.0342 26.1948 24.6036C26.6156 24.2807 26.9263 23.7427 27.5475 22.6667C28.1688 21.5906 28.4794 21.0526 28.5486 20.5267C28.6409 19.8255 28.4509 19.1164 28.0204 18.5553C27.8239 18.2991 27.5476 18.0838 27.119 17.8145C26.4889 17.4186 26.0834 16.7441 26.0835 16C26.0835 15.2559 26.4889 14.5815 27.119 14.1857C27.5477 13.9163 27.824 13.701 28.0205 13.4448C28.4511 12.8837 28.6411 12.1746 28.5488 11.4734C28.4795 10.9475 28.1689 10.4095 27.5476 9.33341C26.9264 8.25737 26.6158 7.71935 26.1949 7.39644C25.6338 6.9659 24.9247 6.77588 24.2235 6.86819C23.9034 6.91033 23.5789 7.04189 23.1312 7.27848C22.4733 7.6262 21.6865 7.64011 21.0421 7.26803C20.3976 6.89596 20.0163 6.20763 19.9885 5.464C19.9695 4.95805 19.9212 4.61119 19.7976 4.31293C19.527 3.65952 19.0079 3.14039 18.3545 2.86974Z" stroke="#8A8A8E" stroke-width="1.2"/>
</svg>
