<svg width="28" height="30" viewBox="0 0 28 30" fill="none" xmlns="http://www.w3.org/2000/svg">
<path d="M17.922 0.198064C18.2353 -0.0927378 21.5943 0.0222473 22.2648 0.023259C22.6453 0.326066 23.1652 0.856389 23.5207 1.2049L25.4611 3.11213C25.8462 3.4916 27.5725 5.14299 27.8048 5.49592L27.8 21.3182L27.8039 26.0682C27.8044 26.931 27.8108 27.7913 27.7892 28.6541C27.8087 29.1457 27.4025 29.7927 26.8937 29.8895C26.0432 30.0514 25.004 29.9876 24.13 29.9871L22.5255 29.9832C21.5689 30.0166 20.4362 29.982 19.5168 29.9822H19.3166C18.7269 29.9867 18.1374 29.993 17.548 29.9852C17.5334 29.985 17.5191 29.9827 17.505 29.9822H13.0754L9.75797 29.9832C9.34951 30.0077 8.88284 29.9874 8.55973 29.9852C8.52817 29.985 8.49657 29.9844 8.465 29.9842L7.9152 29.9852C7.14028 29.9872 6.37338 29.997 5.59684 29.9813C4.22637 29.9838 2.85589 29.9895 1.48551 29.9901C1.28656 29.9901 1.07729 29.9568 0.905432 29.8817C0.341121 29.6349 -0.0492914 29.189 0.0050418 28.5496C0.00322094 26.6574 0.00294497 24.7701 0.00308867 22.8807L0.00406524 11.7254L0.00308867 4.88752C0.00294493 3.729 -0.00265389 2.55457 0.0109012 1.39533C0.0123375 1.27233 0.0441523 1.06107 0.100745 0.95197C0.375424 0.424029 0.534663 0.244827 1.06071 0.0427903C1.66426 0.00292242 2.49467 0.0265721 3.11149 0.0261887L6.67496 0.0252122L10.6867 0.023259C11.2887 0.0230579 13.0358 -0.073222 13.6545 0.20197C13.7484 0.244264 13.8894 0.659937 13.8918 0.788884C13.9224 2.55352 13.8748 4.32735 13.881 6.09357C13.8825 6.52519 13.9221 6.97011 14.2531 7.27619C14.3719 7.3867 14.5189 7.46282 14.6779 7.49592C15.0119 7.56642 16.2701 7.53981 16.6447 7.50666C16.9555 7.47907 17.2931 7.39421 17.4718 7.11603C18.1001 6.1358 17.309 0.768392 17.922 0.198064ZM7.66715 16.491C6.49107 16.4917 5.11782 16.4683 3.96403 16.5037C1.69741 16.7391 2.14858 18.4356 2.15153 19.7049L2.19938 23.619C2.20842 24.7415 2.1368 26.1314 2.24723 27.2459C2.3063 27.8419 3.43749 28.4986 4.21696 28.4442C5.2855 28.4681 6.3298 28.4584 7.38785 28.4569L13.007 28.4549H20.0207C21.1725 28.4547 22.6321 28.4828 23.7531 28.4432C24.8981 28.2304 25.509 27.749 25.5529 26.8875C25.5863 26.2225 25.5848 25.569 25.5861 24.9041L25.592 21.5467C25.5933 20.5505 25.586 19.5467 25.5939 18.5418C25.6037 17.3318 25.2022 16.5384 23.3351 16.5037C22.317 16.4848 21.2829 16.4904 20.2629 16.4901L14.5529 16.4891L7.66715 16.491Z" fill="white"/>
<path d="M14.1992 17.4567C16.4223 17.5234 18.5858 18.3918 20.3965 19.6559C21.2766 20.2704 22.906 21.6191 23.1006 22.6852C22.7953 23.312 21.7402 24.1134 21.1895 24.5964C19.2482 26.2988 17.0663 27.3483 14.4658 27.5251C13.0388 27.5719 12.0951 27.5068 10.6982 27.0915C8.73655 26.5086 7.20827 25.4469 5.68848 24.1042C5.17589 23.6514 4.64177 23.202 4.31641 22.5925C4.41084 22.2623 4.57875 22.0125 4.80664 21.7604C6.96797 19.3693 9.70929 17.7169 12.9473 17.4684C13.26 17.4262 13.867 17.4468 14.1992 17.4567ZM13.4102 20.1716C12.1438 20.3552 11.2641 21.5275 11.4414 22.7946C11.6188 24.0618 12.7869 24.9475 14.0547 24.7761C15.3312 24.6036 16.2235 23.4258 16.0449 22.1501C15.8663 20.8747 14.6847 19.9871 13.4102 20.1716Z" fill="white"/>
</svg>
