<svg width="26" height="30" viewBox="0 0 26 30" fill="none" xmlns="http://www.w3.org/2000/svg">
<path fill-rule="evenodd" clip-rule="evenodd" d="M12.4813 0.00941433C13.1258 -0.0661786 13.9659 0.3202 14.0936 0.925984C14.2478 1.65825 14.1783 2.90062 14.1775 3.65525L14.1772 6.99509C14.1761 7.42004 14.1273 8.15685 14.2283 8.54311C14.6129 9.86008 16.7884 9.76123 16.9499 8.34371C16.9991 7.80458 16.9463 7.25187 16.9694 6.7119C16.9952 6.09854 16.8717 5.34232 17.1663 4.78771C17.7768 3.62417 19.6864 3.88009 19.8442 5.23316C19.8926 5.64874 19.8645 6.16808 19.8642 6.59513L19.8636 10.3779C19.8634 11.1125 19.8124 12.1437 19.9413 12.855C20.0243 13.1765 20.3396 13.4709 20.6232 13.6085C21.2824 13.9891 22.3731 13.5943 22.5093 12.8068C22.6407 12.0478 22.5177 11.0087 22.5602 10.2165C22.5838 9.77813 22.5428 9.47779 22.7442 9.07758C23.2455 7.97683 25.1104 8.08628 25.3982 9.275C25.5147 9.75661 25.4559 10.7895 25.4556 11.3135V18.3853C25.4556 18.8132 25.4578 19.2416 25.4559 19.6695C25.4536 20.1081 25.502 20.5268 25.2699 20.9237C25.0693 21.261 24.7388 21.5007 24.3559 21.5867C23.9499 21.6835 23.5223 21.605 23.1771 21.3707C22.9189 21.2005 22.7273 20.9464 22.635 20.6511C22.4437 20.0462 22.6083 18.8872 22.5686 18.2064C22.5335 17.5976 22.6398 17.1561 21.9916 16.7572C21.6552 16.549 21.2486 16.4858 20.8646 16.5817C19.6569 16.8886 19.8676 18.0677 19.867 19.025L19.8704 22.7872C19.8715 23.3957 19.8949 24.0397 19.858 24.644C19.7888 25.7783 18.4629 26.243 17.5683 25.6297C17.3114 25.4542 17.1232 25.1945 17.0363 24.8958C16.8855 24.3896 16.9981 23.1459 16.9694 22.559C16.9657 22.3008 16.984 22.0704 16.9297 21.8135C16.6613 20.5495 14.7145 20.4916 14.266 21.6321C14.1257 21.9897 14.1772 22.9363 14.1775 23.3543V26.9286C14.1777 27.5374 14.1918 28.1586 14.1639 28.766C14.1335 29.4316 13.6319 29.8314 13.0178 29.9855C12.3291 30.0733 11.484 29.7602 11.319 29.076C11.1592 28.4138 11.2259 27.2809 11.225 26.5784L11.2283 23.1934C11.2299 22.7802 11.2713 22.1022 11.1842 21.721C10.9642 20.9662 10.0804 20.6604 9.37328 20.8916C8.21815 21.2692 8.49229 22.3132 8.46072 23.2427C8.44196 23.7949 8.56608 24.7008 8.28698 25.1746C7.73752 26.22 5.95437 26.0866 5.62425 24.9731C5.48002 24.4864 5.55312 23.1493 5.55337 22.5999L5.55623 18.902C5.55662 18.4995 5.59457 17.8167 5.51656 17.4639C5.26598 16.331 3.39239 16.2241 2.99515 17.3179C2.85742 17.6971 2.92234 17.9447 2.89927 18.3071C2.84636 19.1375 3.05978 20.1019 2.72712 20.8739C2.37878 21.5842 1.38909 21.8135 0.719414 21.4292C-0.163414 20.9225 0.0142815 19.995 0.0152693 19.1255L0.0170825 11.9975C0.0171107 11.2288 0.00814378 10.4376 0.0296654 9.66985C0.037825 9.37951 0.0834879 9.17322 0.249288 8.9367C0.474013 8.61103 0.821287 8.39043 1.21157 8.32536C1.59817 8.26266 2.05571 8.35895 2.36255 8.60223C2.94153 9.06128 2.8926 9.69393 2.89482 10.3479C2.89738 11.1058 2.87509 11.8669 2.90921 12.6233C2.92343 12.9383 3.12556 13.2911 3.38154 13.475C3.73922 13.7222 4.0663 13.7882 4.49026 13.735C4.85359 13.7065 5.38731 13.3422 5.48337 12.9811C5.60583 12.5205 5.5605 11.7832 5.55996 11.2996L5.55749 7.0729C5.55797 6.68143 5.55507 6.28907 5.55304 5.89764C5.55062 5.42911 5.50782 5.06091 5.80228 4.65963C6.03595 4.33579 6.39095 4.12057 6.78616 4.06318C7.17186 4.00509 7.56461 4.10606 7.87449 4.34297C8.77586 5.02353 8.37431 6.51772 8.44979 7.5022C8.49497 8.09177 8.31576 8.52979 8.80815 9.03873C9.47147 9.72433 10.7624 9.60203 11.1468 8.68224C11.2808 8.32737 11.2235 7.41527 11.223 7.00377L11.2232 3.23068C11.2225 2.57729 11.2012 1.89359 11.2489 1.24358C11.2972 0.58615 11.8512 0.112863 12.4813 0.00941433ZM13.0946 10.8102C12.8141 10.8018 12.3013 10.7843 12.0371 10.82C9.30202 11.0298 6.98676 12.425 5.1611 14.4448C4.96845 14.6579 4.82634 14.8686 4.74653 15.1477C5.02134 15.6627 5.47226 16.042 5.90531 16.4245C7.18919 17.5588 8.4801 18.4562 10.1373 18.9486C11.3174 19.2994 12.1144 19.354 13.32 19.3145C15.5166 19.1651 17.3593 18.2786 18.9991 16.8406C19.4643 16.4326 20.3556 15.7559 20.6134 15.2265C20.4492 14.3259 19.0721 13.1868 18.3287 12.6678C16.7992 11.5999 14.9724 10.8666 13.0946 10.8102Z" fill="white"/>
<path d="M12.4277 13.1037C13.5043 12.9478 14.5026 13.6973 14.6535 14.7747C14.8043 15.8524 14.0503 16.8472 12.9719 16.9927C11.901 17.1375 10.9144 16.3896 10.7645 15.3192C10.6147 14.2489 11.358 13.2589 12.4277 13.1037Z" fill="white"/>
</svg>
