<svg width="265" height="32" viewBox="0 0 265 32" fill="none" xmlns="http://www.w3.org/2000/svg">
<mask id="path-1-outside-1_26_506" maskUnits="userSpaceOnUse" x="-0.646484" y="-0.966553" width="266" height="33" fill="black">
<rect fill="white" x="-0.646484" y="-0.966553" width="266" height="33"/>
<path d="M17.4815 28.7134H2.21752V28.2334H9.65752V3.27345H2.21752V2.79344H17.4815V3.27345H10.1375V28.2334H17.4815V28.7134ZM46.208 2.79344V3.27345H35.552C34.208 3.27345 33.136 3.64145 32.336 4.37745C31.536 5.11345 31.136 6.04145 31.136 7.16145V11.0974C31.136 12.2174 31.36 13.0014 31.808 13.4494C32.256 13.8974 32.848 14.1854 33.584 14.3134L43.712 16.3774C44.672 16.5694 45.456 16.9854 46.064 17.6254C46.704 18.2654 47.024 19.4174 47.024 21.0814V23.8654C47.024 25.2734 46.544 26.4414 45.584 27.3694C44.624 28.2654 43.328 28.7134 41.696 28.7134H29.744V28.2334H41.696C43.168 28.2334 44.336 27.8334 45.2 27.0334C46.096 26.2014 46.544 25.1454 46.544 23.8654V21.0814C46.544 19.5774 46.272 18.5534 45.728 18.0094C45.216 17.4334 44.512 17.0494 43.616 16.8574L33.488 14.7934C32.656 14.6334 31.968 14.3134 31.424 13.8334C30.912 13.3214 30.656 12.4094 30.656 11.0974V7.16145C30.656 5.88144 31.104 4.84144 32 4.04145C32.896 3.20944 34.08 2.79344 35.552 2.79344H46.208ZM80.1148 22.8574C80.1148 24.7774 79.4268 26.3454 78.0508 27.5614C76.6748 28.7454 74.1148 29.3374 70.3708 29.3374C66.6268 29.3374 64.0828 28.7454 62.7388 27.5614C61.3948 26.3454 60.7228 24.7774 60.7228 22.8574V8.69745C60.7228 6.77745 61.3948 5.22545 62.7388 4.04145C64.0828 2.82545 66.6268 2.21745 70.3708 2.21745C74.1148 2.21745 76.6748 2.82545 78.0508 4.04145C79.4268 5.22545 80.1148 6.77745 80.1148 8.69745V22.8574ZM61.2028 22.8574C61.2028 24.6494 61.8428 26.1054 63.1228 27.2254C64.4028 28.3134 66.8188 28.8574 70.3708 28.8574C73.9228 28.8574 76.3548 28.3134 77.6668 27.2254C78.9788 26.1054 79.6348 24.6494 79.6348 22.8574V8.69745C79.6348 6.90545 78.9788 5.46545 77.6668 4.37745C76.3548 3.25745 73.9228 2.69745 70.3708 2.69745C66.8188 2.69745 64.4028 3.25745 63.1228 4.37745C61.8428 5.46545 61.2028 6.90545 61.2028 8.69745V22.8574ZM104.591 28.7134V2.79344H116.207C117.839 2.79344 119.151 2.96945 120.143 3.32145C121.167 3.67345 121.951 4.15345 122.495 4.76145C123.039 5.33745 123.407 6.04145 123.599 6.87345C123.791 7.67345 123.887 8.53745 123.887 9.46545V22.1854C123.887 23.1134 123.791 23.9774 123.599 24.7774C123.439 25.5774 123.087 26.2654 122.543 26.8414C121.999 27.4174 121.215 27.8814 120.191 28.2334C119.167 28.5534 117.839 28.7134 116.207 28.7134H104.591ZM116.207 3.27345H105.071V28.2334H116.207C117.743 28.2334 118.975 28.0894 119.903 27.8014C120.863 27.4814 121.599 27.0654 122.111 26.5534C122.623 26.0094 122.959 25.3694 123.119 24.6334C123.311 23.8654 123.407 23.0494 123.407 22.1854V9.46545C123.407 8.60145 123.311 7.78545 123.119 7.01744C122.927 6.24944 122.575 5.59345 122.063 5.04945C121.551 4.50545 120.815 4.07345 119.855 3.75345C118.927 3.43345 117.711 3.27345 116.207 3.27345ZM149.859 3.27345H139.395V17.1454H149.859C151.843 17.1454 153.171 16.6654 153.843 15.7054C154.515 14.7454 154.851 13.3854 154.851 11.6254V8.26545C154.851 6.79345 154.435 5.59345 153.603 4.66545C152.803 3.73745 151.555 3.27345 149.859 3.27345ZM139.395 28.7134H138.915V2.79344H149.859C151.715 2.79344 153.091 3.32145 153.987 4.37745C154.883 5.40145 155.331 6.69745 155.331 8.26545V11.5774C155.331 13.0494 155.139 14.2654 154.755 15.2254C154.371 16.1534 153.603 16.7934 152.451 17.1454H152.979C154.931 17.1454 156.387 17.5934 157.347 18.4894C158.307 19.3534 158.787 20.6174 158.787 22.2814V28.7134H158.307V22.2814C158.307 20.7134 157.875 19.5454 157.011 18.7774C156.147 17.9774 154.803 17.5774 152.979 17.5774H139.395V28.7134ZM173.003 2.79344H173.483V22.8094C173.483 24.6014 174.107 26.0574 175.355 27.1774C176.635 28.2654 179.051 28.8094 182.603 28.8094C186.155 28.8094 188.571 28.2654 189.851 27.1774C191.131 26.0574 191.771 24.6014 191.771 22.8094V2.79344H192.251V22.8094C192.251 24.7294 191.579 26.2974 190.235 27.5134C188.891 28.6974 186.347 29.2894 182.603 29.2894C178.859 29.2894 176.315 28.6974 174.971 27.5134C173.659 26.2974 173.003 24.7294 173.003 22.8094V2.79344ZM219.232 14.5534C219.808 14.5534 220.224 14.4254 220.48 14.1694C220.736 13.9134 221.136 13.3694 221.68 12.5374L227.536 3.60945C227.728 3.28945 227.936 3.08145 228.16 2.98545C228.416 2.85744 228.672 2.79344 228.928 2.79344H229.744C230.192 2.79344 230.512 2.92144 230.704 3.17745C230.928 3.40145 231.04 3.76945 231.04 4.28145V28.7134H230.56V4.28145C230.56 4.02544 230.496 3.80145 230.368 3.60945C230.272 3.38545 230.064 3.27345 229.744 3.27345H229.024C228.8 3.27345 228.608 3.30545 228.448 3.36945C228.288 3.43344 228.112 3.62545 227.92 3.94545L222.064 12.7774C221.488 13.6414 221.04 14.2334 220.72 14.5534C220.432 14.8734 219.936 15.0334 219.232 15.0334C218.528 15.0334 218.016 14.8734 217.696 14.5534C217.408 14.2334 216.976 13.6414 216.4 12.7774L210.544 3.94545C210.352 3.62545 210.16 3.43344 209.968 3.36945C209.808 3.30545 209.616 3.27345 209.392 3.27345H208.672C208.352 3.27345 208.144 3.38545 208.048 3.60945C207.952 3.80145 207.904 4.02544 207.904 4.28145V28.7134H207.424V4.28145C207.424 3.76945 207.52 3.40145 207.712 3.17745C207.936 2.92144 208.256 2.79344 208.672 2.79344H209.488C209.744 2.79344 210 2.85744 210.256 2.98545C210.512 3.08145 210.736 3.28945 210.928 3.60945L216.784 12.5374C217.328 13.3694 217.728 13.9134 217.984 14.1694C218.24 14.4254 218.656 14.5534 219.232 14.5534ZM261.55 2.79344V3.27345H250.894C249.55 3.27345 248.478 3.64145 247.678 4.37745C246.878 5.11345 246.478 6.04145 246.478 7.16145V11.0974C246.478 12.2174 246.702 13.0014 247.15 13.4494C247.598 13.8974 248.19 14.1854 248.926 14.3134L259.054 16.3774C260.014 16.5694 260.798 16.9854 261.406 17.6254C262.046 18.2654 262.366 19.4174 262.366 21.0814V23.8654C262.366 25.2734 261.886 26.4414 260.926 27.3694C259.966 28.2654 258.67 28.7134 257.038 28.7134H245.086V28.2334H257.038C258.51 28.2334 259.678 27.8334 260.542 27.0334C261.438 26.2014 261.886 25.1454 261.886 23.8654V21.0814C261.886 19.5774 261.614 18.5534 261.07 18.0094C260.558 17.4334 259.854 17.0494 258.958 16.8574L248.83 14.7934C247.998 14.6334 247.31 14.3134 246.766 13.8334C246.254 13.3214 245.998 12.4094 245.998 11.0974V7.16145C245.998 5.88144 246.446 4.84144 247.342 4.04145C248.238 3.20944 249.422 2.79344 250.894 2.79344H261.55Z"/>
</mask>
<path d="M17.4815 28.7134H2.21752V28.2334H9.65752V3.27345H2.21752V2.79344H17.4815V3.27345H10.1375V28.2334H17.4815V28.7134ZM46.208 2.79344V3.27345H35.552C34.208 3.27345 33.136 3.64145 32.336 4.37745C31.536 5.11345 31.136 6.04145 31.136 7.16145V11.0974C31.136 12.2174 31.36 13.0014 31.808 13.4494C32.256 13.8974 32.848 14.1854 33.584 14.3134L43.712 16.3774C44.672 16.5694 45.456 16.9854 46.064 17.6254C46.704 18.2654 47.024 19.4174 47.024 21.0814V23.8654C47.024 25.2734 46.544 26.4414 45.584 27.3694C44.624 28.2654 43.328 28.7134 41.696 28.7134H29.744V28.2334H41.696C43.168 28.2334 44.336 27.8334 45.2 27.0334C46.096 26.2014 46.544 25.1454 46.544 23.8654V21.0814C46.544 19.5774 46.272 18.5534 45.728 18.0094C45.216 17.4334 44.512 17.0494 43.616 16.8574L33.488 14.7934C32.656 14.6334 31.968 14.3134 31.424 13.8334C30.912 13.3214 30.656 12.4094 30.656 11.0974V7.16145C30.656 5.88144 31.104 4.84144 32 4.04145C32.896 3.20944 34.08 2.79344 35.552 2.79344H46.208ZM80.1148 22.8574C80.1148 24.7774 79.4268 26.3454 78.0508 27.5614C76.6748 28.7454 74.1148 29.3374 70.3708 29.3374C66.6268 29.3374 64.0828 28.7454 62.7388 27.5614C61.3948 26.3454 60.7228 24.7774 60.7228 22.8574V8.69745C60.7228 6.77745 61.3948 5.22545 62.7388 4.04145C64.0828 2.82545 66.6268 2.21745 70.3708 2.21745C74.1148 2.21745 76.6748 2.82545 78.0508 4.04145C79.4268 5.22545 80.1148 6.77745 80.1148 8.69745V22.8574ZM61.2028 22.8574C61.2028 24.6494 61.8428 26.1054 63.1228 27.2254C64.4028 28.3134 66.8188 28.8574 70.3708 28.8574C73.9228 28.8574 76.3548 28.3134 77.6668 27.2254C78.9788 26.1054 79.6348 24.6494 79.6348 22.8574V8.69745C79.6348 6.90545 78.9788 5.46545 77.6668 4.37745C76.3548 3.25745 73.9228 2.69745 70.3708 2.69745C66.8188 2.69745 64.4028 3.25745 63.1228 4.37745C61.8428 5.46545 61.2028 6.90545 61.2028 8.69745V22.8574ZM104.591 28.7134V2.79344H116.207C117.839 2.79344 119.151 2.96945 120.143 3.32145C121.167 3.67345 121.951 4.15345 122.495 4.76145C123.039 5.33745 123.407 6.04145 123.599 6.87345C123.791 7.67345 123.887 8.53745 123.887 9.46545V22.1854C123.887 23.1134 123.791 23.9774 123.599 24.7774C123.439 25.5774 123.087 26.2654 122.543 26.8414C121.999 27.4174 121.215 27.8814 120.191 28.2334C119.167 28.5534 117.839 28.7134 116.207 28.7134H104.591ZM116.207 3.27345H105.071V28.2334H116.207C117.743 28.2334 118.975 28.0894 119.903 27.8014C120.863 27.4814 121.599 27.0654 122.111 26.5534C122.623 26.0094 122.959 25.3694 123.119 24.6334C123.311 23.8654 123.407 23.0494 123.407 22.1854V9.46545C123.407 8.60145 123.311 7.78545 123.119 7.01744C122.927 6.24944 122.575 5.59345 122.063 5.04945C121.551 4.50545 120.815 4.07345 119.855 3.75345C118.927 3.43345 117.711 3.27345 116.207 3.27345ZM149.859 3.27345H139.395V17.1454H149.859C151.843 17.1454 153.171 16.6654 153.843 15.7054C154.515 14.7454 154.851 13.3854 154.851 11.6254V8.26545C154.851 6.79345 154.435 5.59345 153.603 4.66545C152.803 3.73745 151.555 3.27345 149.859 3.27345ZM139.395 28.7134H138.915V2.79344H149.859C151.715 2.79344 153.091 3.32145 153.987 4.37745C154.883 5.40145 155.331 6.69745 155.331 8.26545V11.5774C155.331 13.0494 155.139 14.2654 154.755 15.2254C154.371 16.1534 153.603 16.7934 152.451 17.1454H152.979C154.931 17.1454 156.387 17.5934 157.347 18.4894C158.307 19.3534 158.787 20.6174 158.787 22.2814V28.7134H158.307V22.2814C158.307 20.7134 157.875 19.5454 157.011 18.7774C156.147 17.9774 154.803 17.5774 152.979 17.5774H139.395V28.7134ZM173.003 2.79344H173.483V22.8094C173.483 24.6014 174.107 26.0574 175.355 27.1774C176.635 28.2654 179.051 28.8094 182.603 28.8094C186.155 28.8094 188.571 28.2654 189.851 27.1774C191.131 26.0574 191.771 24.6014 191.771 22.8094V2.79344H192.251V22.8094C192.251 24.7294 191.579 26.2974 190.235 27.5134C188.891 28.6974 186.347 29.2894 182.603 29.2894C178.859 29.2894 176.315 28.6974 174.971 27.5134C173.659 26.2974 173.003 24.7294 173.003 22.8094V2.79344ZM219.232 14.5534C219.808 14.5534 220.224 14.4254 220.48 14.1694C220.736 13.9134 221.136 13.3694 221.68 12.5374L227.536 3.60945C227.728 3.28945 227.936 3.08145 228.16 2.98545C228.416 2.85744 228.672 2.79344 228.928 2.79344H229.744C230.192 2.79344 230.512 2.92144 230.704 3.17745C230.928 3.40145 231.04 3.76945 231.04 4.28145V28.7134H230.56V4.28145C230.56 4.02544 230.496 3.80145 230.368 3.60945C230.272 3.38545 230.064 3.27345 229.744 3.27345H229.024C228.8 3.27345 228.608 3.30545 228.448 3.36945C228.288 3.43344 228.112 3.62545 227.92 3.94545L222.064 12.7774C221.488 13.6414 221.04 14.2334 220.72 14.5534C220.432 14.8734 219.936 15.0334 219.232 15.0334C218.528 15.0334 218.016 14.8734 217.696 14.5534C217.408 14.2334 216.976 13.6414 216.4 12.7774L210.544 3.94545C210.352 3.62545 210.16 3.43344 209.968 3.36945C209.808 3.30545 209.616 3.27345 209.392 3.27345H208.672C208.352 3.27345 208.144 3.38545 208.048 3.60945C207.952 3.80145 207.904 4.02544 207.904 4.28145V28.7134H207.424V4.28145C207.424 3.76945 207.52 3.40145 207.712 3.17745C207.936 2.92144 208.256 2.79344 208.672 2.79344H209.488C209.744 2.79344 210 2.85744 210.256 2.98545C210.512 3.08145 210.736 3.28945 210.928 3.60945L216.784 12.5374C217.328 13.3694 217.728 13.9134 217.984 14.1694C218.24 14.4254 218.656 14.5534 219.232 14.5534ZM261.55 2.79344V3.27345H250.894C249.55 3.27345 248.478 3.64145 247.678 4.37745C246.878 5.11345 246.478 6.04145 246.478 7.16145V11.0974C246.478 12.2174 246.702 13.0014 247.15 13.4494C247.598 13.8974 248.19 14.1854 248.926 14.3134L259.054 16.3774C260.014 16.5694 260.798 16.9854 261.406 17.6254C262.046 18.2654 262.366 19.4174 262.366 21.0814V23.8654C262.366 25.2734 261.886 26.4414 260.926 27.3694C259.966 28.2654 258.67 28.7134 257.038 28.7134H245.086V28.2334H257.038C258.51 28.2334 259.678 27.8334 260.542 27.0334C261.438 26.2014 261.886 25.1454 261.886 23.8654V21.0814C261.886 19.5774 261.614 18.5534 261.07 18.0094C260.558 17.4334 259.854 17.0494 258.958 16.8574L248.83 14.7934C247.998 14.6334 247.31 14.3134 246.766 13.8334C246.254 13.3214 245.998 12.4094 245.998 11.0974V7.16145C245.998 5.88144 246.446 4.84144 247.342 4.04145C248.238 3.20944 249.422 2.79344 250.894 2.79344H261.55Z" fill="white"/>
<path d="M17.4815 28.7134V30.9309H19.699V28.7134H17.4815ZM2.21752 28.7134H4.1008e-05V30.9309H2.21752V28.7134ZM2.21752 28.2334V26.016H4.1008e-05V28.2334H2.21752ZM9.65752 28.2334V30.4509H11.875V28.2334H9.65752ZM9.65752 3.27345H11.875V1.05597H9.65752V3.27345ZM2.21752 3.27345H4.1008e-05V5.49092H2.21752V3.27345ZM2.21752 2.79345V0.57597H4.1008e-05V2.79345H2.21752ZM17.4815 2.79345H19.699V0.57597H17.4815V2.79345ZM17.4815 3.27345V5.49092H19.699V3.27345H17.4815ZM10.1375 3.27345V1.05597H7.92004V3.27345H10.1375ZM10.1375 28.2334H7.92004V30.4509H10.1375V28.2334ZM17.4815 28.2334H19.699V26.016H17.4815V28.2334ZM17.4815 28.7134V26.496H2.21752V28.7134V30.9309H17.4815V28.7134ZM2.21752 28.7134H4.43499V28.2334H2.21752H4.1008e-05V28.7134H2.21752ZM2.21752 28.2334V30.4509H9.65752V28.2334V26.016H2.21752V28.2334ZM9.65752 28.2334H11.875V3.27345H9.65752H7.44004V28.2334H9.65752ZM9.65752 3.27345V1.05597H2.21752V3.27345V5.49092H9.65752V3.27345ZM2.21752 3.27345H4.43499V2.79345H2.21752H4.1008e-05V3.27345H2.21752ZM2.21752 2.79345V5.01092H17.4815V2.79345V0.57597H2.21752V2.79345ZM17.4815 2.79345H15.264V3.27345H17.4815H19.699V2.79345H17.4815ZM17.4815 3.27345V1.05597H10.1375V3.27345V5.49092H17.4815V3.27345ZM10.1375 3.27345H7.92004V28.2334H10.1375H12.355V3.27345H10.1375ZM10.1375 28.2334V30.4509H17.4815V28.2334V26.016H10.1375V28.2334ZM17.4815 28.2334H15.264V28.7134H17.4815H19.699V28.2334H17.4815ZM46.208 2.79345H48.4255V0.57597H46.208V2.79345ZM46.208 3.27345V5.49092H48.4255V3.27345H46.208ZM31.808 13.4494L33.376 11.8815V11.8815L31.808 13.4494ZM33.584 14.3134L34.0268 12.1406L33.9955 12.1342L33.964 12.1288L33.584 14.3134ZM43.712 16.3774L43.2692 18.5503L43.2771 18.5519L43.712 16.3774ZM46.064 17.6254L44.4563 19.1527L44.4759 19.1733L44.496 19.1934L46.064 17.6254ZM45.584 27.3694L47.097 28.9905L47.1112 28.9773L47.1252 28.9638L45.584 27.3694ZM29.744 28.7134H27.5265V30.9309H29.744V28.7134ZM29.744 28.2334V26.016H27.5265V28.2334H29.744ZM45.2 27.0334L46.7066 28.6605L46.7089 28.6584L45.2 27.0334ZM45.728 18.0094L44.0707 19.4827L44.1139 19.5314L44.16 19.5774L45.728 18.0094ZM43.616 16.8574L44.0806 14.6892L44.0697 14.6869L44.0588 14.6846L43.616 16.8574ZM33.488 14.7934L33.9308 12.6206L33.9188 12.6182L33.9068 12.6159L33.488 14.7934ZM31.424 13.8334L29.856 15.4014L29.905 15.4504L29.9569 15.4962L31.424 13.8334ZM32 4.04145L33.4769 5.69555L33.493 5.68113L33.5089 5.6664L32 4.04145ZM46.208 2.79345H43.9905V3.27345H46.208H48.4255V2.79345H46.208ZM46.208 3.27345V1.05597H35.552V3.27345V5.49092H46.208V3.27345ZM35.552 3.27345V1.05597C33.7895 1.05597 32.1351 1.54915 30.8347 2.74554L32.336 4.37745L33.8374 6.00936C34.137 5.73374 34.6266 5.49092 35.552 5.49092V3.27345ZM32.336 4.37745L30.8347 2.74554C29.5628 3.91564 28.9185 5.44257 28.9185 7.16145H31.136H33.3535C33.3535 6.64032 33.5092 6.31125 33.8374 6.00936L32.336 4.37745ZM31.136 7.16145H28.9185V11.0974H31.136H33.3535V7.16145H31.136ZM31.136 11.0974H28.9185C28.9185 12.3897 29.1536 13.931 30.24 15.0174L31.808 13.4494L33.376 11.8815C33.4843 11.9897 33.4736 12.0473 33.4362 11.9163C33.3974 11.7807 33.3535 11.5224 33.3535 11.0974H31.136ZM31.808 13.4494L30.24 15.0174C31.0658 15.8432 32.1007 16.3062 33.2041 16.4981L33.584 14.3134L33.964 12.1288C33.5953 12.0646 33.4463 11.9517 33.376 11.8815L31.808 13.4494ZM33.584 14.3134L33.1412 16.4863L43.2692 18.5503L43.712 16.3774L44.1548 14.2046L34.0268 12.1406L33.584 14.3134ZM43.712 16.3774L43.2771 18.5519C43.8399 18.6644 44.1973 18.8801 44.4563 19.1527L46.064 17.6254L47.6717 16.0982C46.7147 15.0908 45.5041 14.4745 44.1469 14.203L43.712 16.3774ZM46.064 17.6254L44.496 19.1934C44.4725 19.1699 44.558 19.2409 44.6474 19.5629C44.7374 19.8868 44.8065 20.378 44.8065 21.0814H47.024H49.2415C49.2415 19.2752 48.9223 17.3477 47.632 16.0575L46.064 17.6254ZM47.024 21.0814H44.8065V23.8654H47.024H49.2415V21.0814H47.024ZM47.024 23.8654H44.8065C44.8065 24.7089 44.545 25.2897 44.0428 25.7751L45.584 27.3694L47.1252 28.9638C48.5431 27.5932 49.2415 25.838 49.2415 23.8654H47.024ZM45.584 27.3694L44.071 25.7484C43.6153 26.1737 42.9092 26.496 41.696 26.496V28.7134V30.9309C43.7469 30.9309 45.6327 30.3572 47.097 28.9905L45.584 27.3694ZM41.696 28.7134V26.496H29.744V28.7134V30.9309H41.696V28.7134ZM29.744 28.7134H31.9615V28.2334H29.744H27.5265V28.7134H29.744ZM29.744 28.2334V30.4509H41.696V28.2334V26.016H29.744V28.2334ZM41.696 28.2334V30.4509C43.5808 30.4509 45.3369 29.9288 46.7066 28.6605L45.2 27.0334L43.6934 25.4064C43.3351 25.7381 42.7553 26.016 41.696 26.016V28.2334ZM45.2 27.0334L46.7089 28.6584C48.0801 27.3852 48.7615 25.7295 48.7615 23.8654H46.544H44.3265C44.3265 24.5614 44.112 25.0177 43.6911 25.4085L45.2 27.0334ZM46.544 23.8654H48.7615V21.0814H46.544H44.3265V23.8654H46.544ZM46.544 21.0814H48.7615C48.7615 19.4822 48.5078 17.6533 47.296 16.4415L45.728 18.0094L44.16 19.5774C44.0706 19.488 44.125 19.4842 44.1969 19.7547C44.2677 20.0214 44.3265 20.4483 44.3265 21.0814H46.544ZM45.728 18.0094L47.3854 16.5362C46.504 15.5446 45.3483 14.9608 44.0806 14.6892L43.616 16.8574L43.1514 19.0257C43.6757 19.1381 43.9281 19.3223 44.0707 19.4827L45.728 18.0094ZM43.616 16.8574L44.0588 14.6846L33.9308 12.6206L33.488 14.7934L33.0452 16.9663L43.1732 19.0303L43.616 16.8574ZM33.488 14.7934L33.9068 12.6159C33.3979 12.518 33.0913 12.3473 32.8911 12.1707L31.424 13.8334L29.9569 15.4962C30.8447 16.2796 31.9141 16.7489 33.0693 16.971L33.488 14.7934ZM31.424 13.8334L32.992 12.2655C33.0754 12.3488 33.0389 12.3656 32.983 12.1662C32.9262 11.9639 32.8735 11.6225 32.8735 11.0974H30.656H28.4385C28.4385 12.5628 28.6981 14.2435 29.856 15.4014L31.424 13.8334ZM30.656 11.0974H32.8735V7.16145H30.656H28.4385V11.0974H30.656ZM30.656 7.16145H32.8735C32.8735 6.46632 33.0859 6.04463 33.4769 5.69555L32 4.04145L30.5231 2.38735C29.1221 3.63826 28.4385 5.29657 28.4385 7.16145H30.656ZM32 4.04145L33.5089 5.6664C33.9142 5.29009 34.5191 5.01092 35.552 5.01092V2.79345V0.57597C33.6409 0.57597 31.8779 1.1288 30.4911 2.41649L32 4.04145ZM35.552 2.79345V5.01092H46.208V2.79345V0.57597H35.552V2.79345ZM78.0508 27.5614L79.4971 29.2423L79.5082 29.2328L79.5192 29.2231L78.0508 27.5614ZM62.7388 27.5614L61.251 29.2058L61.2619 29.2156L61.2729 29.2253L62.7388 27.5614ZM62.7388 4.04145L64.2046 5.70535L64.2156 5.69564L64.2265 5.68578L62.7388 4.04145ZM78.0508 4.04145L76.5824 5.70306L76.5933 5.71276L76.6044 5.72232L78.0508 4.04145ZM63.1228 27.2254L61.6625 28.8943L61.6745 28.9047L61.6866 28.915L63.1228 27.2254ZM77.6668 27.2254L79.0823 28.9324L79.0945 28.9223L79.1065 28.912L77.6668 27.2254ZM77.6668 4.37745L76.227 6.06398L76.2391 6.07426L76.2513 6.08437L77.6668 4.37745ZM63.1228 4.37745L64.5589 6.06703L64.571 6.05673L64.583 6.04627L63.1228 4.37745ZM80.1148 22.8574H77.8973C77.8973 24.1747 77.4579 25.1261 76.5824 25.8998L78.0508 27.5614L79.5192 29.2231C81.3956 27.5648 82.3322 25.3801 82.3322 22.8574H80.1148ZM78.0508 27.5614L76.6044 25.8806C75.8832 26.5011 74.0561 27.12 70.3708 27.12V29.3374V31.5549C74.1734 31.5549 77.4663 30.9897 79.4971 29.2423L78.0508 27.5614ZM70.3708 29.3374V27.12C68.6017 27.12 67.2106 26.9788 66.1573 26.7337C65.0902 26.4853 64.5041 26.1614 64.2046 25.8975L62.7388 27.5614L61.2729 29.2253C62.3174 30.1455 63.6753 30.7095 65.1522 31.0532C66.6429 31.4001 68.3958 31.5549 70.3708 31.5549V29.3374ZM62.7388 27.5614L64.2265 25.9171C63.3774 25.1489 62.9402 24.1928 62.9402 22.8574H60.7228H58.5053C58.5053 25.3621 59.4122 27.542 61.251 29.2058L62.7388 27.5614ZM60.7228 22.8574H62.9402V8.69744H60.7228H58.5053V22.8574H60.7228ZM60.7228 8.69744H62.9402C62.9402 7.36252 63.376 6.43533 64.2046 5.70535L62.7388 4.04145L61.2729 2.37754C59.4136 4.01556 58.5053 6.19238 58.5053 8.69744H60.7228ZM62.7388 4.04145L64.2265 5.68578C64.9049 5.072 66.6833 4.43492 70.3708 4.43492V2.21745V-3.05176e-05C66.5703 -3.05176e-05 63.2606 0.578896 61.251 2.39711L62.7388 4.04145ZM70.3708 2.21745V4.43492C74.0487 4.43492 75.8639 5.06817 76.5824 5.70306L78.0508 4.04145L79.5192 2.37983C77.4856 0.582718 74.1809 -3.05176e-05 70.3708 -3.05176e-05V2.21745ZM78.0508 4.04145L76.6044 5.72232C77.4596 6.45816 77.8973 7.38088 77.8973 8.69744H80.1148H82.3322C82.3322 6.17401 81.3939 3.99273 79.4971 2.36057L78.0508 4.04145ZM80.1148 8.69744H77.8973V22.8574H80.1148H82.3322V8.69744H80.1148ZM61.2028 22.8574H58.9853C58.9853 25.2499 59.8728 27.3282 61.6625 28.8943L63.1228 27.2254L64.583 25.5566C63.8128 24.8827 63.4202 24.049 63.4202 22.8574H61.2028ZM63.1228 27.2254L61.6866 28.915C62.6989 29.7755 64.0031 30.2965 65.4077 30.6128C66.828 30.9326 68.4952 31.0749 70.3708 31.0749V28.8574V26.64C68.6944 26.64 67.3776 26.5103 66.3819 26.2861C65.3704 26.0584 64.8266 25.7634 64.5589 25.5359L63.1228 27.2254ZM70.3708 28.8574V31.0749C73.9752 31.0749 77.1213 30.5585 79.0823 28.9324L77.6668 27.2254L76.2513 25.5185C75.5882 26.0684 73.8704 26.64 70.3708 26.64V28.8574ZM77.6668 27.2254L79.1065 28.912C80.9335 27.3523 81.8522 25.2695 81.8522 22.8574H79.6348H77.4173C77.4173 24.0294 77.024 24.8586 76.227 25.5389L77.6668 27.2254ZM79.6348 22.8574H81.8522V8.69744H79.6348H77.4173V22.8574H79.6348ZM79.6348 8.69744H81.8522C81.8522 6.2844 80.9315 4.20404 79.0823 2.67053L77.6668 4.37745L76.2513 6.08437C77.026 6.72686 77.4173 7.52649 77.4173 8.69744H79.6348ZM77.6668 4.37745L79.1065 2.69091C77.1419 1.01378 73.9827 0.479969 70.3708 0.479969V2.69744V4.91492C73.8629 4.91492 75.5677 5.50111 76.227 6.06398L77.6668 4.37745ZM70.3708 2.69744V0.479969C68.4921 0.479969 66.8199 0.626743 65.3941 0.957241C63.9821 1.28452 62.6741 1.82348 61.6625 2.70863L63.1228 4.37745L64.583 6.04627C64.8514 5.81141 65.3914 5.51038 66.3955 5.27765C67.3856 5.04815 68.6975 4.91492 70.3708 4.91492V2.69744ZM63.1228 4.37745L61.6866 2.68787C59.8745 4.22817 58.9853 6.30432 58.9853 8.69744H61.2028H63.4202C63.4202 7.50658 63.811 6.70273 64.5589 6.06703L63.1228 4.37745ZM61.2028 8.69744H58.9853V22.8574H61.2028H63.4202V8.69744H61.2028ZM104.591 28.7134H102.373V30.9309H104.591V28.7134ZM104.591 2.79345V0.57597H102.373V2.79345H104.591ZM120.143 3.32145L119.401 5.41126L119.411 5.41492L119.422 5.41848L120.143 3.32145ZM122.495 4.76144L120.842 6.24004L120.862 6.2623L120.883 6.28402L122.495 4.76144ZM123.599 6.87345L121.438 7.37206L121.44 7.38152L121.442 7.39095L123.599 6.87345ZM123.599 24.7774L121.442 24.2599L121.433 24.3011L121.424 24.3426L123.599 24.7774ZM122.543 26.8414L124.155 28.364V28.364L122.543 26.8414ZM120.191 28.2334L120.852 30.35L120.882 30.3407L120.911 30.3305L120.191 28.2334ZM105.071 3.27345V1.05597H102.853V3.27345H105.071ZM105.071 28.2334H102.853V30.4509H105.071V28.2334ZM119.903 27.8014L120.56 29.9193L120.582 29.9124L120.604 29.9051L119.903 27.8014ZM122.111 26.5534L123.679 28.1214L123.702 28.0977L123.725 28.0732L122.111 26.5534ZM123.119 24.6334L120.967 24.0956L120.959 24.1289L120.952 24.1624L123.119 24.6334ZM123.119 7.01744L120.967 7.55526L120.967 7.55526L123.119 7.01744ZM122.063 5.04945L123.677 3.52967V3.52967L122.063 5.04945ZM119.855 3.75345L119.132 5.84979L119.143 5.85351L119.153 5.85713L119.855 3.75345ZM104.591 28.7134H106.808V2.79345H104.591H102.373V28.7134H104.591ZM104.591 2.79345V5.01092H116.207V2.79345V0.57597H104.591V2.79345ZM116.207 2.79345V5.01092C117.709 5.01092 118.741 5.17698 119.401 5.41126L120.143 3.32145L120.884 1.23164C119.56 0.761913 117.968 0.57597 116.207 0.57597V2.79345ZM120.143 3.32145L119.422 5.41848C120.201 5.68624 120.62 5.99191 120.842 6.24004L122.495 4.76144L124.147 3.28285C123.281 2.31498 122.133 1.66065 120.863 1.22441L120.143 3.32145ZM122.495 4.76144L120.883 6.28402C121.135 6.55132 121.327 6.89319 121.438 7.37206L123.599 6.87345L125.759 6.37483C125.486 5.1897 124.942 4.12357 124.107 3.23887L122.495 4.76144ZM123.599 6.87345L121.442 7.39095C121.589 8.00147 121.669 8.68993 121.669 9.46545H123.887H126.104C126.104 8.38496 125.992 7.34542 125.755 6.35594L123.599 6.87345ZM123.887 9.46545H121.669V22.1854H123.887H126.104V9.46545H123.887ZM123.887 22.1854H121.669C121.669 22.961 121.589 23.6494 121.442 24.2599L123.599 24.7774L125.755 25.2949C125.992 24.3055 126.104 23.2659 126.104 22.1854H123.887ZM123.599 24.7774L121.424 24.3426C121.343 24.7472 121.18 25.0548 120.931 25.3189L122.543 26.8414L124.155 28.364C124.993 27.4761 125.534 26.4077 125.773 25.2123L123.599 24.7774ZM122.543 26.8414L120.931 25.3189C120.706 25.5563 120.273 25.8603 119.47 26.1364L120.191 28.2334L120.911 30.3305C122.156 29.9025 123.291 29.2786 124.155 28.364L122.543 26.8414ZM120.191 28.2334L119.529 26.1169C118.8 26.3448 117.718 26.496 116.207 26.496V28.7134V30.9309C117.959 30.9309 119.533 30.7621 120.852 30.35L120.191 28.2334ZM116.207 28.7134V26.496H104.591V28.7134V30.9309H116.207V28.7134ZM116.207 3.27345V1.05597H105.071V3.27345V5.49092H116.207V3.27345ZM105.071 3.27345H102.853V28.2334H105.071H107.288V3.27345H105.071ZM105.071 28.2334V30.4509H116.207V28.2334V26.016H105.071V28.2334ZM116.207 28.2334V30.4509C117.852 30.4509 119.333 30.3002 120.56 29.9193L119.903 27.8014L119.245 25.6836C118.617 25.8787 117.633 26.016 116.207 26.016V28.2334ZM119.903 27.8014L120.604 29.9051C121.768 29.517 122.846 28.9539 123.679 28.1214L122.111 26.5534L120.543 24.9855C120.351 25.177 119.957 25.4459 119.201 25.6978L119.903 27.8014ZM122.111 26.5534L123.725 28.0732C124.516 27.2337 125.041 26.2303 125.286 25.1045L123.119 24.6334L120.952 24.1624C120.877 24.5086 120.73 24.7852 120.496 25.0337L122.111 26.5534ZM123.119 24.6334L125.27 25.1713C125.51 24.2122 125.624 23.2144 125.624 22.1854H123.407H121.189C121.189 22.8845 121.112 23.5187 120.967 24.0956L123.119 24.6334ZM123.407 22.1854H125.624V9.46545H123.407H121.189V22.1854H123.407ZM123.407 9.46545H125.624C125.624 8.43652 125.51 7.43873 125.27 6.47963L123.119 7.01744L120.967 7.55526C121.112 8.13216 121.189 8.76637 121.189 9.46545H123.407ZM123.119 7.01744L125.27 6.47963C124.992 5.36655 124.465 4.36631 123.677 3.52967L122.063 5.04945L120.448 6.56923C120.684 6.82058 120.862 7.13234 120.967 7.55526L123.119 7.01744ZM122.063 5.04945L123.677 3.52967C122.841 2.64054 121.746 2.04647 120.556 1.64977L119.855 3.75345L119.153 5.85713C119.883 6.10042 120.261 6.37035 120.448 6.56923L122.063 5.04945ZM119.855 3.75345L120.578 1.6571C119.328 1.22613 117.84 1.05597 116.207 1.05597V3.27345V5.49092C117.581 5.49092 118.526 5.64077 119.132 5.84979L119.855 3.75345ZM139.395 3.27345V1.05597H137.178V3.27345H139.395ZM139.395 17.1454H137.178V19.3629H139.395V17.1454ZM153.843 15.7054L155.66 16.9771V16.9771L153.843 15.7054ZM153.603 4.66545L151.924 6.11332L151.938 6.12966L151.952 6.14571L153.603 4.66545ZM139.395 28.7134V30.9309H141.613V28.7134H139.395ZM138.915 28.7134H136.698V30.9309H138.915V28.7134ZM138.915 2.79345V0.57597H136.698V2.79345H138.915ZM153.987 4.37745L152.296 5.8121L152.307 5.82497L152.318 5.83767L153.987 4.37745ZM154.755 15.2254L156.804 16.0733L156.809 16.0612L156.814 16.049L154.755 15.2254ZM152.451 17.1454L151.803 15.0248L152.451 19.3629V17.1454ZM157.347 18.4894L155.834 20.1105L155.849 20.1242L155.864 20.1377L157.347 18.4894ZM158.787 28.7134V30.9309H161.005V28.7134H158.787ZM158.307 28.7134H156.09V30.9309H158.307V28.7134ZM157.011 18.7774L155.505 20.4045L155.521 20.4198L155.538 20.4348L157.011 18.7774ZM139.395 17.5774V15.36H137.178V17.5774H139.395ZM149.859 3.27345V1.05597H139.395V3.27345V5.49092H149.859V3.27345ZM139.395 3.27345H137.178V17.1454H139.395H141.613V3.27345H139.395ZM139.395 17.1454V19.3629H149.859V17.1454V14.928H139.395V17.1454ZM149.859 17.1454V19.3629C152.067 19.3629 154.351 18.8461 155.66 16.9771L153.843 15.7054L152.027 14.4338C151.991 14.4848 151.619 14.928 149.859 14.928V17.1454ZM153.843 15.7054L155.66 16.9771C156.694 15.5001 157.069 13.6252 157.069 11.6254H154.851H152.634C152.634 13.1457 152.337 13.9908 152.027 14.4338L153.843 15.7054ZM154.851 11.6254H157.069V8.26545H154.851H152.634V11.6254H154.851ZM154.851 8.26545H157.069C157.069 6.35176 156.515 4.5917 155.254 3.18518L153.603 4.66545L151.952 6.14571C152.355 6.59519 152.634 7.23513 152.634 8.26545H154.851ZM153.603 4.66545L155.283 3.21757C153.918 1.63412 151.941 1.05597 149.859 1.05597V3.27345V5.49092C151.169 5.49092 151.689 5.84077 151.924 6.11332L153.603 4.66545ZM139.395 28.7134V26.496H138.915V28.7134V30.9309H139.395V28.7134ZM138.915 28.7134H141.133V2.79345H138.915H136.698V28.7134H138.915ZM138.915 2.79345V5.01092H149.859V2.79345V0.57597H138.915V2.79345ZM149.859 2.79345V5.01092C151.299 5.01092 151.953 5.40737 152.296 5.8121L153.987 4.37745L155.678 2.94279C154.229 1.23552 152.132 0.57597 149.859 0.57597V2.79345ZM153.987 4.37745L152.318 5.83767C152.807 6.39647 153.114 7.14761 153.114 8.26545H155.331H157.549C157.549 6.24728 156.959 4.40643 155.656 2.91723L153.987 4.37745ZM155.331 8.26545H153.114V11.5774H155.331H157.549V8.26545H155.331ZM155.331 11.5774H153.114C153.114 12.8775 152.941 13.7897 152.696 14.4019L154.755 15.2254L156.814 16.049C157.337 14.7412 157.549 13.2214 157.549 11.5774H155.331ZM154.755 15.2254L152.706 14.3776C152.627 14.57 152.461 14.8237 151.803 15.0248L152.451 17.1454L153.099 19.2661C154.745 18.7632 156.116 17.7369 156.804 16.0733L154.755 15.2254ZM152.451 17.1454V19.3629H152.979V17.1454V14.928H152.451V17.1454ZM152.979 17.1454V19.3629C154.638 19.3629 155.446 19.7482 155.834 20.1105L157.347 18.4894L158.86 16.8684C157.328 15.4387 155.225 14.928 152.979 14.928V17.1454ZM157.347 18.4894L155.864 20.1377C156.23 20.4675 156.57 21.0533 156.57 22.2814H158.787H161.005C161.005 20.1816 160.384 18.2394 158.831 16.8412L157.347 18.4894ZM158.787 22.2814H156.57V28.7134H158.787H161.005V22.2814H158.787ZM158.787 28.7134V26.496H158.307V28.7134V30.9309H158.787V28.7134ZM158.307 28.7134H160.525V22.2814H158.307H156.09V28.7134H158.307ZM158.307 22.2814H160.525C160.525 20.3163 159.974 18.4438 158.484 17.1201L157.011 18.7774L155.538 20.4348C155.777 20.6471 156.09 21.1106 156.09 22.2814H158.307ZM157.011 18.7774L158.518 17.1503C157.069 15.8089 155.066 15.36 152.979 15.36V17.5774V19.7949C154.54 19.7949 155.225 20.146 155.505 20.4045L157.011 18.7774ZM152.979 17.5774V15.36H139.395V17.5774V19.7949H152.979V17.5774ZM139.395 17.5774H137.178V28.7134H139.395H141.613V17.5774H139.395ZM173.003 2.79345V0.57597H170.786V2.79345H173.003ZM173.483 2.79345H175.7V0.57597H173.483V2.79345ZM175.355 27.1774L173.874 28.8278L173.896 28.8477L173.919 28.867L175.355 27.1774ZM189.851 27.1774L191.287 28.867L191.299 28.8567L191.311 28.8463L189.851 27.1774ZM191.771 2.79345V0.57597H189.554V2.79345H191.771ZM192.251 2.79345H194.468V0.57597H192.251V2.79345ZM190.235 27.5134L191.701 29.1773L191.712 29.1676L191.723 29.1578L190.235 27.5134ZM174.971 27.5134L173.464 29.1398L173.484 29.1588L173.505 29.1773L174.971 27.5134ZM173.003 2.79345V5.01092H173.483V2.79345V0.57597H173.003V2.79345ZM173.483 2.79345H171.266V22.8094H173.483H175.7V2.79345H173.483ZM173.483 22.8094H171.266C171.266 25.1824 172.122 27.2557 173.874 28.8278L175.355 27.1774L176.836 25.5271C176.092 24.8592 175.7 24.0205 175.7 22.8094H173.483ZM175.355 27.1774L173.919 28.867C174.931 29.7275 176.235 30.2485 177.64 30.5648C179.06 30.8846 180.727 31.0269 182.603 31.0269V28.8094V26.592C180.927 26.592 179.61 26.4623 178.614 26.2381C177.603 26.0104 177.059 25.7154 176.791 25.4879L175.355 27.1774ZM182.603 28.8094V31.0269C184.479 31.0269 186.146 30.8846 187.566 30.5648C188.971 30.2485 190.275 29.7275 191.287 28.867L189.851 27.1774L188.415 25.4879C188.147 25.7154 187.603 26.0104 186.592 26.2381C185.596 26.4623 184.279 26.592 182.603 26.592V28.8094ZM189.851 27.1774L191.311 28.8463C193.101 27.2802 193.988 25.2019 193.988 22.8094H191.771H189.554C189.554 24.001 189.161 24.8347 188.391 25.5086L189.851 27.1774ZM191.771 22.8094H193.988V2.79345H191.771H189.554V22.8094H191.771ZM191.771 2.79345V5.01092H192.251V2.79345V0.57597H191.771V2.79345ZM192.251 2.79345H190.034V22.8094H192.251H194.468V2.79345H192.251ZM192.251 22.8094H190.034C190.034 24.1448 189.596 25.1009 188.747 25.8691L190.235 27.5134L191.723 29.1578C193.562 27.494 194.468 25.3141 194.468 22.8094H192.251ZM190.235 27.5134L188.769 25.8495C188.47 26.1134 187.884 26.4373 186.816 26.6857C185.763 26.9308 184.372 27.072 182.603 27.072V29.2894V31.5069C184.578 31.5069 186.331 31.3521 187.822 31.0052C189.298 30.6615 190.656 30.0975 191.701 29.1773L190.235 27.5134ZM182.603 29.2894V27.072C180.834 27.072 179.443 26.9308 178.39 26.6857C177.322 26.4373 176.736 26.1134 176.437 25.8495L174.971 27.5134L173.505 29.1773C174.55 30.0975 175.908 30.6615 177.384 31.0052C178.875 31.3521 180.628 31.5069 182.603 31.5069V29.2894ZM174.971 27.5134L176.478 25.8871C175.655 25.124 175.22 24.1628 175.22 22.8094H173.003H170.786C170.786 25.2961 171.663 27.4709 173.464 29.1398L174.971 27.5134ZM173.003 22.8094H175.22V2.79345H173.003H170.786V22.8094H173.003ZM220.48 14.1694L222.048 15.7374L222.048 15.7374L220.48 14.1694ZM221.68 12.5374L219.825 11.3212L219.824 11.3239L221.68 12.5374ZM227.536 3.60945L229.39 4.82564L229.414 4.78846L229.437 4.75033L227.536 3.60945ZM228.16 2.98545L229.033 5.02363L229.093 4.99796L229.151 4.96881L228.16 2.98545ZM230.704 3.17744L228.93 4.50793L229.024 4.634L229.136 4.74544L230.704 3.17744ZM231.04 28.7134V30.9309H233.257V28.7134H231.04ZM230.56 28.7134H228.342V30.9309H230.56V28.7134ZM230.368 3.60945L228.329 4.48296L228.41 4.67008L228.522 4.83947L230.368 3.60945ZM227.92 3.94545L229.768 5.17084L229.795 5.12918L229.821 5.08632L227.92 3.94545ZM222.064 12.7774L223.909 14.0075L223.912 14.0028L222.064 12.7774ZM220.72 14.5534L219.152 12.9855L219.11 13.0267L219.071 13.07L220.72 14.5534ZM217.696 14.5534L216.047 16.0369L216.086 16.0802L216.128 16.1214L217.696 14.5534ZM216.4 12.7774L214.551 14.0028L214.554 14.0075L216.4 12.7774ZM210.544 3.94545L208.642 5.08632L208.668 5.12918L208.695 5.17084L210.544 3.94545ZM209.968 3.36945L209.144 5.42832L209.204 5.45252L209.266 5.47313L209.968 3.36945ZM208.048 3.60945L210.031 4.60114L210.06 4.54285L210.086 4.48296L208.048 3.60945ZM207.904 28.7134V30.9309H210.121V28.7134H207.904ZM207.424 28.7134H205.206V30.9309H207.424V28.7134ZM207.712 3.17744L206.043 1.71723L206.035 1.72574L206.028 1.73433L207.712 3.17744ZM210.256 2.98545L209.264 4.96881L209.368 5.02086L209.477 5.06173L210.256 2.98545ZM210.928 3.60945L209.026 4.75033L209.049 4.78846L209.073 4.82564L210.928 3.60945ZM216.784 12.5374L218.639 11.3239L218.638 11.3213L216.784 12.5374ZM217.984 14.1694L216.416 15.7374V15.7374L217.984 14.1694ZM219.232 14.5534V16.7709C220.06 16.7709 221.187 16.5979 222.048 15.7374L220.48 14.1694L218.912 12.6015C219.086 12.4268 219.255 12.359 219.323 12.338C219.382 12.3199 219.365 12.336 219.232 12.336V14.5534ZM220.48 14.1694L222.048 15.7374C222.489 15.2958 223.005 14.5629 223.535 13.751L221.68 12.5374L219.824 11.3239C219.564 11.7202 219.353 12.0279 219.185 12.2558C219.102 12.3693 219.035 12.455 218.984 12.5174C218.93 12.5827 218.907 12.6056 218.912 12.6015L220.48 14.1694ZM221.68 12.5374L223.534 13.7536L229.39 4.82564L227.536 3.60945L225.681 2.39325L219.825 11.3213L221.68 12.5374ZM227.536 3.60945L229.437 4.75033C229.463 4.70636 229.457 4.72835 229.404 4.78144C229.348 4.83666 229.228 4.94008 229.033 5.02363L228.16 2.98545L227.286 0.947266C226.46 1.30108 225.946 1.94819 225.634 2.46856L227.536 3.60945ZM228.16 2.98545L229.151 4.96881C229.147 4.97112 229.123 4.98232 229.081 4.99271C229.039 5.00333 228.986 5.01092 228.928 5.01092V2.79345V0.57597C228.288 0.57597 227.695 0.738491 227.168 1.00208L228.16 2.98545ZM228.928 2.79345V5.01092H229.744V2.79345V0.57597H228.928V2.79345ZM229.744 2.79345V5.01092C229.766 5.01092 229.663 5.01533 229.496 4.94832C229.309 4.87335 229.096 4.73036 228.93 4.50793L230.704 3.17744L232.477 1.84696C231.716 0.831245 230.592 0.57597 229.744 0.57597V2.79345ZM230.704 3.17744L229.136 4.74544C228.941 4.55047 228.862 4.35737 228.834 4.26709C228.809 4.18567 228.822 4.17659 228.822 4.28144H231.04H233.257C233.257 3.5286 233.105 2.44323 232.272 1.60945L230.704 3.17744ZM231.04 4.28144H228.822V28.7134H231.04H233.257V4.28144H231.04ZM231.04 28.7134V26.496H230.56V28.7134V30.9309H231.04V28.7134ZM230.56 28.7134H232.777V4.28144H230.56H228.342V28.7134H230.56ZM230.56 4.28144H232.777C232.777 3.63743 232.61 2.97499 232.213 2.37942L230.368 3.60945L228.522 4.83947C228.458 4.74277 228.41 4.63703 228.379 4.53062C228.349 4.42602 228.342 4.33932 228.342 4.28144H230.56ZM230.368 3.60945L232.406 2.73593C232.167 2.17882 231.751 1.70674 231.191 1.40502C230.67 1.12433 230.146 1.05597 229.744 1.05597V3.27345V5.49092C229.661 5.49092 229.402 5.47857 229.088 5.30987C228.736 5.12015 228.472 4.81607 228.329 4.48296L230.368 3.60945ZM229.744 3.27345V1.05597H229.024V3.27345V5.49092H229.744V3.27345ZM229.024 3.27345V1.05597C228.598 1.05597 228.111 1.11556 227.624 1.31057L228.448 3.36945L229.271 5.42832C229.104 5.49533 229.001 5.49092 229.024 5.49092V3.27345ZM228.448 3.36945L227.624 1.31057C227.118 1.51309 226.769 1.83596 226.561 2.06305C226.339 2.30484 226.161 2.56663 226.018 2.80457L227.92 3.94545L229.821 5.08632C229.87 5.00426 229.876 5.01005 229.83 5.05984C229.805 5.08735 229.752 5.14174 229.668 5.2053C229.585 5.26847 229.453 5.35542 229.271 5.42832L228.448 3.36945ZM227.92 3.94545L226.071 2.72005L220.215 11.5521L222.064 12.7774L223.912 14.0028L229.768 5.17084L227.92 3.94545ZM222.064 12.7774L220.218 11.5474C219.647 12.4049 219.303 12.8343 219.152 12.9855L220.72 14.5534L222.288 16.1214C222.776 15.6325 223.328 14.878 223.909 14.0075L222.064 12.7774ZM220.72 14.5534L219.071 13.07C219.239 12.8838 219.405 12.8179 219.451 12.8031C219.485 12.7921 219.428 12.816 219.232 12.816V15.0334V17.2509C220.177 17.2509 221.456 17.05 222.368 16.0369L220.72 14.5534ZM219.232 15.0334V12.816C219.138 12.816 219.072 12.8106 219.029 12.8049C218.985 12.7992 218.972 12.794 218.981 12.7969C218.991 12.8 219.027 12.8124 219.08 12.8427C219.133 12.8737 219.198 12.9201 219.264 12.9855L217.696 14.5534L216.128 16.1214C217.044 17.0382 218.258 17.2509 219.232 17.2509V15.0334ZM217.696 14.5534L219.344 13.07C219.175 12.8821 218.821 12.4116 218.245 11.5474L216.4 12.7774L214.554 14.0075C215.13 14.8713 215.64 15.5848 216.047 16.0369L217.696 14.5534ZM216.4 12.7774L218.248 11.5521L212.392 2.72005L210.544 3.94545L208.695 5.17084L214.551 14.0028L216.4 12.7774ZM210.544 3.94545L212.445 2.80457C212.184 2.36927 211.641 1.58984 210.669 1.26576L209.968 3.36945L209.266 5.47313C208.944 5.36561 208.756 5.19753 208.688 5.12943C208.618 5.05958 208.607 5.02831 208.642 5.08632L210.544 3.94545ZM209.968 3.36945L210.791 1.31057C210.304 1.11556 209.817 1.05597 209.392 1.05597V3.27345V5.49092C209.414 5.49092 209.311 5.49533 209.144 5.42832L209.968 3.36945ZM209.392 3.27345V1.05597H208.672V3.27345V5.49092H209.392V3.27345ZM208.672 3.27345V1.05597C208.269 1.05597 207.745 1.12433 207.224 1.40502C206.664 1.70675 206.248 2.17883 206.009 2.73594L208.048 3.60945L210.086 4.48296C209.943 4.81607 209.679 5.12015 209.327 5.30987C209.014 5.47857 208.754 5.49092 208.672 5.49092V3.27345ZM208.048 3.60945L206.064 2.61776C205.787 3.17152 205.686 3.74693 205.686 4.28144H207.904H210.121C210.121 4.30396 210.116 4.43137 210.031 4.60114L208.048 3.60945ZM207.904 4.28144H205.686V28.7134H207.904H210.121V4.28144H207.904ZM207.904 28.7134V26.496H207.424V28.7134V30.9309H207.904V28.7134ZM207.424 28.7134H209.641V4.28144H207.424H205.206V28.7134H207.424ZM207.424 4.28144H209.641C209.641 4.15374 209.654 4.13186 209.641 4.18118C209.628 4.23199 209.572 4.41413 209.395 4.62056L207.712 3.17744L206.028 1.73433C205.316 2.56535 205.206 3.59394 205.206 4.28144H207.424ZM207.712 3.17744L209.38 4.63766C209.259 4.77673 209.104 4.88408 208.943 4.94832C208.793 5.00834 208.689 5.01092 208.672 5.01092V2.79345V0.57597C207.771 0.57597 206.78 0.874489 206.043 1.71723L207.712 3.17744ZM208.672 2.79345V5.01092H209.488V2.79345V0.57597H208.672V2.79345ZM209.488 2.79345V5.01092C209.429 5.01092 209.376 5.00333 209.334 4.99271C209.292 4.98232 209.268 4.97112 209.264 4.96881L210.256 2.98545L211.247 1.00208C210.72 0.738491 210.127 0.57597 209.488 0.57597V2.79345ZM210.256 2.98545L209.477 5.06173C209.118 4.92719 208.999 4.70451 209.026 4.75033L210.928 3.60945L212.829 2.46856C212.472 1.87438 211.905 1.2357 211.034 0.909161L210.256 2.98545ZM210.928 3.60945L209.073 4.82564L214.929 13.7536L216.784 12.5374L218.638 11.3213L212.782 2.39325L210.928 3.60945ZM216.784 12.5374L214.928 13.751C215.458 14.5629 215.974 15.2958 216.416 15.7374L217.984 14.1694L219.552 12.6015C219.556 12.6056 219.533 12.5827 219.479 12.5174C219.428 12.455 219.361 12.3693 219.278 12.2558C219.11 12.0279 218.899 11.7202 218.639 11.3239L216.784 12.5374ZM217.984 14.1694L216.416 15.7374C217.276 16.5979 218.403 16.7709 219.232 16.7709V14.5534V12.336C219.098 12.336 219.081 12.3199 219.14 12.338C219.208 12.359 219.377 12.4268 219.551 12.6015L217.984 14.1694ZM261.55 2.79345H263.767V0.57597H261.55V2.79345ZM261.55 3.27345V5.49092H263.767V3.27345H261.55ZM247.15 13.4494L248.718 11.8815V11.8815L247.15 13.4494ZM248.926 14.3134L249.369 12.1406L249.337 12.1342L249.306 12.1288L248.926 14.3134ZM259.054 16.3774L258.611 18.5503L258.619 18.5519L259.054 16.3774ZM261.406 17.6254L259.798 19.1527L259.818 19.1733L259.838 19.1934L261.406 17.6254ZM260.926 27.3694L262.439 28.9905L262.453 28.9773L262.467 28.9638L260.926 27.3694ZM245.086 28.7134H242.868V30.9309H245.086V28.7134ZM245.086 28.2334V26.016H242.868V28.2334H245.086ZM260.542 27.0334L262.048 28.6605L262.051 28.6584L260.542 27.0334ZM261.07 18.0094L259.413 19.4827L259.456 19.5314L259.502 19.5774L261.07 18.0094ZM258.958 16.8574L259.423 14.6892L259.412 14.6869L259.401 14.6846L258.958 16.8574ZM248.83 14.7934L249.273 12.6206L249.261 12.6182L249.249 12.6159L248.83 14.7934ZM246.766 13.8334L245.198 15.4014L245.247 15.4504L245.299 15.4962L246.766 13.8334ZM247.342 4.04145L248.819 5.69555L248.835 5.68113L248.851 5.6664L247.342 4.04145ZM261.55 2.79345H259.332V3.27345H261.55H263.767V2.79345H261.55ZM261.55 3.27345V1.05597H250.894V3.27345V5.49092H261.55V3.27345ZM250.894 3.27345V1.05597C249.131 1.05597 247.477 1.54915 246.177 2.74554L247.678 4.37745L249.179 6.00936C249.479 5.73374 249.968 5.49092 250.894 5.49092V3.27345ZM247.678 4.37745L246.177 2.74554C244.905 3.91564 244.26 5.44257 244.26 7.16145H246.478H248.695C248.695 6.64032 248.851 6.31125 249.179 6.00936L247.678 4.37745ZM246.478 7.16145H244.26V11.0974H246.478H248.695V7.16145H246.478ZM246.478 11.0974H244.26C244.26 12.3897 244.495 13.931 245.582 15.0174L247.15 13.4494L248.718 11.8815C248.826 11.9897 248.815 12.0473 248.778 11.9163C248.739 11.7807 248.695 11.5224 248.695 11.0974H246.478ZM247.15 13.4494L245.582 15.0174C246.408 15.8432 247.443 16.3062 248.546 16.4981L248.926 14.3134L249.306 12.1288C248.937 12.0646 248.788 11.9517 248.718 11.8815L247.15 13.4494ZM248.926 14.3134L248.483 16.4863L258.611 18.5503L259.054 16.3774L259.497 14.2046L249.369 12.1406L248.926 14.3134ZM259.054 16.3774L258.619 18.5519C259.182 18.6644 259.539 18.8801 259.798 19.1527L261.406 17.6254L263.014 16.0982C262.057 15.0908 260.846 14.4745 259.489 14.203L259.054 16.3774ZM261.406 17.6254L259.838 19.1934C259.814 19.1699 259.9 19.2409 259.989 19.5629C260.079 19.8868 260.148 20.378 260.148 21.0814H262.366H264.583C264.583 19.2752 264.264 17.3477 262.974 16.0575L261.406 17.6254ZM262.366 21.0814H260.148V23.8654H262.366H264.583V21.0814H262.366ZM262.366 23.8654H260.148C260.148 24.7089 259.887 25.2897 259.385 25.7751L260.926 27.3694L262.467 28.9638C263.885 27.5932 264.583 25.838 264.583 23.8654H262.366ZM260.926 27.3694L259.413 25.7484C258.957 26.1737 258.251 26.496 257.038 26.496V28.7134V30.9309C259.089 30.9309 260.975 30.3572 262.439 28.9905L260.926 27.3694ZM257.038 28.7134V26.496H245.086V28.7134V30.9309H257.038V28.7134ZM245.086 28.7134H247.303V28.2334H245.086H242.868V28.7134H245.086ZM245.086 28.2334V30.4509H257.038V28.2334V26.016H245.086V28.2334ZM257.038 28.2334V30.4509C258.923 30.4509 260.679 29.9288 262.048 28.6605L260.542 27.0334L259.035 25.4064C258.677 25.7381 258.097 26.016 257.038 26.016V28.2334ZM260.542 27.0334L262.051 28.6584C263.422 27.3852 264.103 25.7295 264.103 23.8654H261.886H259.668C259.668 24.5614 259.454 25.0177 259.033 25.4085L260.542 27.0334ZM261.886 23.8654H264.103V21.0814H261.886H259.668V23.8654H261.886ZM261.886 21.0814H264.103C264.103 19.4822 263.85 17.6533 262.638 16.4415L261.07 18.0094L259.502 19.5774C259.412 19.488 259.467 19.4842 259.539 19.7547C259.61 20.0214 259.668 20.4483 259.668 21.0814H261.886ZM261.07 18.0094L262.727 16.5362C261.846 15.5446 260.69 14.9608 259.423 14.6892L258.958 16.8574L258.493 19.0257C259.018 19.1381 259.27 19.3223 259.413 19.4827L261.07 18.0094ZM258.958 16.8574L259.401 14.6846L249.273 12.6206L248.83 14.7934L248.387 16.9663L258.515 19.0303L258.958 16.8574ZM248.83 14.7934L249.249 12.6159C248.74 12.518 248.433 12.3473 248.233 12.1707L246.766 13.8334L245.299 15.4962C246.187 16.2796 247.256 16.7489 248.411 16.971L248.83 14.7934ZM246.766 13.8334L248.334 12.2655C248.417 12.3488 248.381 12.3656 248.325 12.1662C248.268 11.9639 248.215 11.6225 248.215 11.0974H245.998H243.78C243.78 12.5628 244.04 14.2435 245.198 15.4014L246.766 13.8334ZM245.998 11.0974H248.215V7.16145H245.998H243.78V11.0974H245.998ZM245.998 7.16145H248.215C248.215 6.46632 248.428 6.04463 248.819 5.69555L247.342 4.04145L245.865 2.38735C244.464 3.63826 243.78 5.29657 243.78 7.16145H245.998ZM247.342 4.04145L248.851 5.6664C249.256 5.29009 249.861 5.01092 250.894 5.01092V2.79345V0.57597C248.983 0.57597 247.22 1.1288 245.833 2.41649L247.342 4.04145ZM250.894 2.79345V5.01092H261.55V2.79345V0.57597H250.894V2.79345Z" fill="white" mask="url(#path-1-outside-1_26_506)"/>
</svg>
